<svg width="20" height="25" viewBox="0 0 20 25" fill="none" xmlns="http://www.w3.org/2000/svg">
<g clip-path="url(#clip0_430_2366)">
<path d="M16.73 5.16595L15.45 6.16595L9.99995 10.216L4.54995 6.12595L3.26995 5.12595C2.96841 4.8765 2.6003 4.721 2.21124 4.67871C1.82218 4.63642 1.42926 4.7092 1.08116 4.88804C0.73306 5.06688 0.445078 5.34392 0.252892 5.68483C0.0607053 6.02574 -0.0272399 6.41555 -4.84232e-05 6.80596V18.396C-4.84232e-05 18.7566 0.143237 19.1026 0.398286 19.3576C0.653336 19.6127 0.999257 19.756 1.35995 19.756H4.54995V12.036L9.99995 16.126L15.45 12.036V19.756H18.64C19.0006 19.756 19.3466 19.6127 19.6016 19.3576C19.8567 19.1026 20 18.7566 20 18.396V6.80596C20.0187 6.41892 19.9247 6.03476 19.7292 5.70018C19.5337 5.3656 19.2453 5.095 18.8989 4.92129C18.5525 4.74757 18.1632 4.67821 17.7781 4.72165C17.3931 4.76509 17.0289 4.91944 16.73 5.16595Z" fill="#7FBB9A"/>
</g>
<defs>
<clipPath id="clip0_430_2366">
<rect width="20" height="24" fill="white" transform="translate(0 0.666992)"/>
</clipPath>
</defs>
</svg>
