<svg width="20" height="27" viewBox="0 0 20 27" fill="none" xmlns="http://www.w3.org/2000/svg">
<g clip-path="url(#clip0_430_2360)">
<path d="M9.99886 8.19629C8.63624 8.19629 7.32943 8.73759 6.3659 9.70111C5.40238 10.6646 4.86108 11.9714 4.86108 13.3341C4.86108 14.6967 5.40238 16.0035 6.3659 16.967C7.32943 17.9305 8.63624 18.4718 9.99886 18.4718C11.3615 18.4718 12.6683 17.9305 13.6318 16.967C14.5953 16.0035 15.1366 14.6967 15.1366 13.3341C15.1366 11.9714 14.5953 10.6646 13.6318 9.70111C12.6683 8.73759 11.3615 8.19629 9.99886 8.19629ZM9.99886 16.6707C9.11363 16.6707 8.26465 16.3191 7.6387 15.6931C7.01274 15.0672 6.66108 14.2182 6.66108 13.333C6.66108 12.4477 7.01274 11.5987 7.6387 10.9728C8.26465 10.3468 9.11363 9.99518 9.99886 9.99518C10.8841 9.99518 11.7331 10.3468 12.359 10.9728C12.985 11.5987 13.3366 12.4477 13.3366 13.333C13.3366 14.2182 12.985 15.0672 12.359 15.6931C11.7331 16.3191 10.8841 16.6707 9.99886 16.6707Z" fill="#7FBB9A"/>
<path d="M15.3394 9.20513C16.0009 9.20513 16.5372 8.66886 16.5372 8.00735C16.5372 7.34583 16.0009 6.80957 15.3394 6.80957C14.6779 6.80957 14.1416 7.34583 14.1416 8.00735C14.1416 8.66886 14.6779 9.20513 15.3394 9.20513Z" fill="#7FBB9A"/>
<path d="M19.4811 6.78998C19.2239 6.12573 18.8308 5.52251 18.327 5.01893C17.8232 4.51535 17.2199 4.1225 16.5555 3.86553C15.7781 3.57371 14.9568 3.41591 14.1266 3.39887C13.0566 3.3522 12.7178 3.33887 10.0044 3.33887C7.29109 3.33887 6.94331 3.33887 5.8822 3.39887C5.05263 3.41504 4.23193 3.57287 3.45553 3.86553C2.79102 4.1222 2.18749 4.51495 1.68368 5.01857C1.17987 5.52219 0.786896 6.12556 0.529975 6.78998C0.238091 7.56733 0.0806578 8.38869 0.0644195 9.21887C0.0166417 10.2878 0.00219727 10.6266 0.00219727 13.3411C0.00219727 16.0544 0.00219726 16.4 0.0644195 17.4633C0.0810862 18.2944 0.237753 19.1144 0.529975 19.8933C0.787617 20.5575 1.18097 21.1606 1.6849 21.6642C2.18884 22.1677 2.79227 22.5606 3.45664 22.8178C4.23157 23.1213 5.05261 23.2904 5.88442 23.3178C6.95442 23.3644 7.29331 23.3789 10.0066 23.3789C12.72 23.3789 13.0678 23.3789 14.1289 23.3178C14.959 23.3009 15.7802 23.1435 16.5578 22.8522C17.2219 22.5946 17.8251 22.2014 18.3288 21.6977C18.8326 21.194 19.2257 20.5908 19.4833 19.9266C19.7755 19.1489 19.9322 18.3289 19.9489 17.4978C19.9966 16.4289 20.0111 16.09 20.0111 13.3755C20.0111 10.6611 20.0111 10.3166 19.9489 9.25331C19.9359 8.41139 19.7777 7.57803 19.4811 6.78998ZM18.1278 17.3811C18.1206 18.0214 18.0037 18.6558 17.7822 19.2566C17.6153 19.6887 17.3599 20.0811 17.0323 20.4085C16.7047 20.7359 16.3121 20.9911 15.88 21.1578C15.2858 21.3783 14.6582 21.4951 14.0244 21.5033C12.9689 21.5522 12.6711 21.5644 9.96442 21.5644C7.25553 21.5644 6.97886 21.5644 5.90331 21.5033C5.26989 21.4956 4.64256 21.3787 4.04886 21.1578C3.61518 20.9922 3.22109 20.7374 2.89208 20.4099C2.56306 20.0825 2.30646 19.6895 2.13886 19.2566C1.92047 18.6623 1.80365 18.0354 1.79331 17.4022C1.74553 16.3466 1.73442 16.0489 1.73442 13.3422C1.73442 10.6344 1.73442 10.3578 1.79331 9.28109C1.80049 8.64111 1.91737 8.00711 2.13886 7.40664C2.47775 6.52998 3.1722 5.83998 4.04886 5.50442C4.64285 5.28458 5.27 5.16772 5.90331 5.15887C6.95998 5.11109 7.25664 5.09776 9.96442 5.09776C12.6722 5.09776 12.95 5.09776 14.0244 5.15887C14.6582 5.16649 15.2859 5.28339 15.88 5.50442C16.3121 5.67139 16.7046 5.92687 17.0322 6.25446C17.3598 6.58204 17.6152 6.9745 17.7822 7.40664C18.0006 8.00103 18.1174 8.62793 18.1278 9.26109C18.1755 10.3178 18.1878 10.6144 18.1878 13.3222C18.1878 16.0289 18.1878 16.32 18.14 17.3822H18.1278V17.3811Z" fill="#7FBB9A"/>
</g>
<defs>
<clipPath id="clip0_430_2360">
<rect width="20" height="26.6667" fill="white"/>
</clipPath>
</defs>
</svg>
