<svg width="20" height="21" viewBox="0 0 20 21" fill="none" xmlns="http://www.w3.org/2000/svg">
<path d="M19.6326 16.3335L15.0689 12.1841C14.8532 11.988 14.5697 11.8835 14.2783 11.8925C13.9869 11.9015 13.7105 12.0234 13.5073 12.2324L10.8207 14.9953C10.174 14.8718 8.87396 14.4665 7.53573 13.1316C6.1975 11.7923 5.79221 10.4889 5.67209 9.84671L8.43275 7.15904C8.64203 6.95598 8.76409 6.67946 8.7731 6.388C8.78211 6.09654 8.67737 5.81301 8.48103 5.59741L4.33273 1.03488C4.13631 0.818607 3.86332 0.687421 3.57173 0.669183C3.28014 0.650946 2.99292 0.747095 2.77109 0.93721L0.334875 3.0265C0.140776 3.2213 0.0249252 3.48056 0.00929798 3.75511C-0.00754219 4.03578 -0.328628 10.6842 4.82671 15.8418C9.32416 20.3381 14.9578 20.667 16.5093 20.667C16.7361 20.667 16.8753 20.6603 16.9123 20.658C17.1868 20.6426 17.446 20.5263 17.6398 20.3313L19.728 17.894C19.9189 17.6729 20.0157 17.3859 19.9979 17.0943C19.9801 16.8028 19.849 16.5297 19.6326 16.3335Z" fill="#7FBB9A"/>
</svg>
